<svg width="88" height="38" viewBox="0 0 88 38" fill="none" xmlns="http://www.w3.org/2000/svg">
<path d="M16.6317 5.14884C17.6677 3.8529 18.3707 2.11301 18.1854 0.334961C16.6688 0.410414 14.818 1.33562 13.7466 2.63241C12.7844 3.74307 11.933 5.55583 12.155 7.25929C13.8573 7.40693 15.5583 6.40834 16.6317 5.14884Z" fill="white"/>
<path d="M18.166 7.5919C15.6936 7.4446 13.5914 8.99508 12.4106 8.99508C11.2293 8.99508 9.42116 7.66615 7.46557 7.7019C4.92027 7.73937 2.55854 9.17847 1.2669 11.4673C-1.38977 16.0463 0.565819 22.8384 3.14927 26.5676C4.40379 28.4125 5.91594 30.4441 7.90815 30.371C9.79052 30.2971 10.5284 29.1521 12.8164 29.1521C15.1028 29.1521 15.7675 30.371 17.76 30.3341C19.8265 30.2971 21.1183 28.4881 22.3728 26.6413C23.8121 24.5381 24.4013 22.5074 24.4382 22.3958C24.4011 22.3589 20.4536 20.8445 20.417 16.3037C20.3797 12.5017 23.5163 10.693 23.6639 10.581C21.8929 7.9616 19.1254 7.66615 18.166 7.5919Z" fill="white"/>
<path d="M39.6942 2.44629C45.068 2.44629 48.8099 6.15054 48.8099 11.5436C48.8099 16.956 44.9908 20.6795 39.5594 20.6795H33.6096V30.1414H29.3109V2.44629H39.6942ZM33.6094 17.0711H38.5419C42.2847 17.0711 44.4147 15.0561 44.4147 11.5629C44.4147 8.07004 42.2847 6.07388 38.5612 6.07388H33.6094V17.0711Z" fill="white"/>
<path d="M49.9331 24.403C49.9331 20.8713 52.6393 18.7026 57.4379 18.434L62.965 18.1077V16.5533C62.965 14.3078 61.4487 12.9642 58.9158 12.9642C56.5161 12.9642 55.0191 14.1156 54.6549 15.9199H50.7395C50.9699 12.2731 54.0787 9.58618 59.0691 9.58618C63.9631 9.58618 67.0914 12.1772 67.0914 16.2267V30.1414H63.1183V26.8211H63.0228C61.8521 29.0668 59.2993 30.4869 56.6508 30.4869C52.697 30.4869 49.9331 28.0301 49.9331 24.403ZM62.9648 22.5798V20.9868L57.9939 21.2938C55.518 21.4667 54.1171 22.5607 54.1171 24.288C54.1171 26.0535 55.5756 27.2053 57.8021 27.2053C60.7 27.2049 62.9648 25.2089 62.9648 22.5798Z" fill="white"/>
<path d="M70.842 37.5696V34.2108C71.1487 34.2875 71.8394 34.2875 72.1851 34.2875C74.1042 34.2875 75.1408 33.4815 75.7738 31.4087C75.7738 31.3702 76.1389 30.1803 76.1389 30.1611L68.8459 9.95117H73.3365L78.4424 26.3802H78.5187L83.6246 9.95117H88L80.4375 31.1973C78.7108 36.0918 76.7147 37.6655 72.5307 37.6655C72.1851 37.6655 71.1485 37.627 70.842 37.5696Z" fill="white"/>
</svg>
