<svg width="194" height="57" viewBox="0 0 194 57" fill="none" xmlns="http://www.w3.org/2000/svg">
<path d="M0.566424 1.66721C0.567859 0.972345 0.765945 0.72168 1.45997 0.72168C9.04682 0.72168 16.633 0.72168 24.2198 0.723108C36.2887 0.724536 45.8766 10.3927 45.8766 22.3068V34.483C45.8766 35.095 45.8672 35.5706 45.8486 35.9106C45.2507 46.7777 36.6325 55.3661 25.7808 56.1752C24.6153 56.2623 22.9789 56.2573 21.6368 56.218C10.4184 55.886 1.12121 47.1141 0.58939 35.8041C0.558529 35.1478 0.543457 34.3266 0.543457 33.3403C0.543457 22.7831 0.551352 12.2252 0.566424 1.66721ZM30.7473 33.2375C30.7775 34.7736 30.7717 36.3069 30.2012 37.7966C29.538 39.5291 28.1012 40.6575 26.3012 41.071C24.8162 41.4123 23.289 41.458 21.72 41.2074C17.7913 40.5796 16.1621 37.6281 16.1456 33.9295C16.1241 29.1911 16.1234 25.5019 16.1435 22.8602C16.1665 19.803 17.4081 16.9971 20.5236 16.0044C21.5471 15.6781 22.648 15.5331 23.8272 15.5688C27.0885 15.6673 29.1863 16.9957 30.2299 20.1393C30.4423 20.7799 30.7036 21.2227 31.4643 20.9992C34.6746 20.0543 36.7079 19.453 37.5648 19.1959C38.3414 18.9624 38.3801 18.2647 38.1612 17.6113C36.2615 11.9345 32.0356 8.40519 25.9782 7.77388C23.6593 7.53178 21.3511 7.63676 19.0545 8.08882C11.8545 9.50569 7.8095 14.8668 7.54036 22.0033C7.39179 25.9596 7.53031 29.9453 7.50734 33.9052C7.49012 36.9311 8.15041 40.1112 9.74443 42.7092C12.143 46.6178 16.2447 48.5924 20.7217 49.1016C24.0978 49.4858 27.4925 49.2694 30.6605 47.9075C35.993 45.6151 38.9328 40.7039 38.9328 34.9829C38.9328 32.1798 38.9299 29.3768 38.9234 26.5738C38.922 25.8068 38.3356 25.7704 37.7485 25.7704H24.5607C23.7217 25.7704 23.7167 26.4888 23.7174 27.1094C23.7196 29.6161 23.7246 31.3207 23.7325 32.2234C23.7368 32.7854 23.9191 33.1982 24.5428 33.1975C26.599 33.1954 28.6545 33.1968 30.71 33.2018C30.7301 33.2018 30.7466 33.2175 30.7473 33.2375Z" fill="#372580"/>
<path d="M30.71 33.202C28.6545 33.197 26.599 33.1956 24.5428 33.1977C23.9191 33.1985 23.7368 32.7857 23.7325 32.2236C23.7246 31.321 23.7196 29.6163 23.7174 27.1096C23.7167 26.489 23.7217 25.7706 24.5607 25.7706H37.7485C38.3356 25.7706 38.922 25.807 38.9234 26.574C38.9299 29.3771 38.9327 32.1801 38.9327 34.9831C38.9327 40.7041 35.993 45.6153 30.6605 47.9077C27.4925 49.2696 24.0978 49.486 20.7217 49.1018C16.2447 48.5926 12.143 46.618 9.74441 42.7095C8.15039 40.1114 7.4901 36.9313 7.50733 33.9055C7.53029 29.9455 7.39178 25.9599 7.54034 22.0035C7.80948 14.867 11.8545 9.50592 19.0545 8.08905C21.3511 7.637 23.6593 7.53202 25.9782 7.77411C32.0356 8.40542 36.2614 11.9347 38.1612 17.6115C38.3801 18.2649 38.3414 18.9627 37.5648 19.1962C36.7079 19.4533 34.6746 20.0546 31.4643 20.9994C30.7035 21.2229 30.4423 20.7802 30.2299 20.1396C29.1863 16.9959 27.0885 15.6676 23.8272 15.569C22.648 15.5333 21.5471 15.6783 20.5236 16.0047C17.4081 16.9973 16.1664 19.8032 16.1435 22.8605C16.1234 25.5021 16.1241 29.1914 16.1456 33.9297C16.1621 37.6283 17.7913 40.5799 21.72 41.2076C23.2889 41.4583 24.8162 41.4126 26.3011 41.0712C28.1011 40.6577 29.538 39.5294 30.2011 37.7968C30.7717 36.3071 30.7775 34.7739 30.7473 33.2377C30.7473 33.2177 30.7301 33.202 30.71 33.202Z" fill="white"/>
<path d="M68.8567 31.4163C67.732 31.4141 66.6074 31.4077 65.4828 31.397C64.9581 31.392 64.5655 31.4684 64.5627 30.8407C64.5576 29.6745 64.5548 28.5076 64.5548 27.3414C64.5548 26.9664 64.7521 26.7793 65.1469 26.78C67.8203 26.785 70.4938 26.7879 73.1672 26.7879C73.5297 26.7879 73.9926 26.7865 73.9926 27.2878V32.4297C73.9926 37.1709 70.8842 40.6352 66.1868 41.2458C64.4356 41.4736 62.7067 41.3658 61 40.9223C56.5617 39.7697 54.5055 36.1668 54.4969 31.8048C54.4904 28.0898 54.4997 25.6795 54.5248 24.574C54.6239 20.2627 57.0239 16.9141 61.3244 15.92C63.2851 15.4665 65.2352 15.4408 67.1744 15.8436C70.3265 16.4978 72.7725 18.9273 73.5799 22.0031C73.7048 22.4802 73.3065 22.6966 72.8758 22.8208C71.2488 23.2907 70.1184 23.6235 69.4847 23.8199C68.9816 23.9749 68.678 23.8042 68.5739 23.3064C68.5431 23.1572 68.4282 22.8894 68.2294 22.5023C67.2964 20.6819 65.3737 20.2842 63.5005 20.5613C60.9268 20.9412 59.8796 22.7037 59.8682 25.2168C59.8588 27.2942 59.8603 29.371 59.8717 31.4477C59.8861 33.9836 60.6677 35.9326 63.428 36.3575C64.595 36.5367 66.0756 36.4632 67.1155 35.8983C68.8294 34.967 68.9184 33.1909 68.8926 31.4527C68.8926 31.4327 68.8768 31.4163 68.8567 31.4163Z" fill="white"/>
<path d="M134.749 41.3437C128.691 41.6636 124.673 38.1143 124.637 32.0191C124.619 28.9297 124.622 26.4659 124.645 24.6277C124.692 20.8241 126.653 17.3712 130.408 16.1157C132.407 15.448 134.756 15.4202 136.775 15.8586C140.049 16.5699 142.114 18.9038 142.932 22.0524C143.111 22.738 142.736 22.8744 142.157 23.0437C141.144 23.3393 140.131 23.6343 139.119 23.9285C138.609 24.0763 138.173 24.1427 138.015 23.5457C137.642 22.1403 136.82 20.9762 135.338 20.6284C134.301 20.3849 132.969 20.4499 132.013 20.9162C130.486 21.6604 129.996 23.4165 129.994 25.0204C129.992 27.3 129.991 29.5795 129.991 31.8584C129.99 33.8187 130.759 35.8019 132.862 36.304C133.579 36.4753 134.31 36.4953 135.053 36.3632C136.848 36.0461 137.722 34.9385 138.163 33.2345C138.283 32.7711 138.436 32.4347 138.981 32.6082C140.002 32.9332 141.023 33.2595 142.043 33.5866C142.8 33.8294 143.317 33.8794 143.072 34.8042C142.853 35.6262 142.607 36.3132 142.331 36.866C140.838 39.8618 137.988 41.173 134.749 41.3437Z" fill="white"/>
<path d="M87.4804 38.5464C87.4804 38.4814 87.4632 38.4757 87.428 38.5299C86.2897 40.2689 84.5012 41.2987 82.4062 41.3301C78.311 41.3915 75.8938 38.3814 76.5002 34.4157C76.9502 31.4699 79.6409 30.2151 82.3517 29.8452C83.9428 29.6281 85.562 29.5624 87.2091 29.6481C87.2486 29.6502 87.2816 29.6202 87.2837 29.581C87.2837 29.5795 87.2837 29.5774 87.2837 29.576C87.2493 28.3226 87.5034 26.7508 86.1821 26.0559C85.1758 25.5267 83.2366 25.5953 82.5376 26.6137C82.3861 26.8343 82.2117 27.1621 82.0144 27.5963C81.9218 27.8006 81.7725 27.947 81.5464 27.8949C80.7849 27.7185 79.4744 27.355 77.9091 26.9829C77.5215 26.8908 77.1806 26.8422 77.266 26.358C77.8151 23.2579 80.8294 21.9253 83.6636 21.6996C87.1287 21.424 91.2017 22.2238 92.1146 26.1988C92.3278 27.1271 92.3299 28.0877 92.3299 29.0975V40.3746C92.3299 41.0194 91.8885 40.9459 91.3503 40.9459H88.0416C87.6663 40.9459 87.5069 40.7823 87.4983 40.4081C87.4833 39.7761 87.4775 39.1555 87.4804 38.5464ZM82.0086 36.7367C82.5842 37.1631 83.2431 37.2566 83.9773 37.2145C85.4766 37.1288 86.5926 36.204 87.1675 34.8528C87.2242 34.7192 87.255 34.5743 87.2593 34.4179C87.2744 33.9115 87.2773 33.3895 87.2694 32.8525C87.2694 32.8275 87.2493 32.8075 87.2242 32.8068C86.1691 32.7775 85.1435 32.8168 84.1474 32.9239C83.0751 33.0396 81.7581 33.4081 81.4208 34.5007C81.1962 35.227 81.3383 36.2411 82.0086 36.7367Z" fill="white"/>
<path d="M100.767 24.5697C100.767 24.6418 100.789 24.6482 100.83 24.5889C102.125 22.73 104.077 21.4695 106.433 21.6681C108.488 21.8409 109.906 23.1099 110.61 24.9874C110.627 25.0339 110.649 25.0367 110.677 24.9953C112.045 22.8921 114.181 21.3653 116.822 21.6824C119.781 22.038 121.074 24.5075 121.322 27.1999C121.348 27.482 121.361 27.9576 121.361 28.6282V40.3202C121.361 40.6772 121.197 40.9465 120.823 40.9465H116.822C116.441 40.9465 116.193 40.7915 116.194 40.3959C116.201 36.6159 116.195 32.8359 116.176 29.0559C116.169 27.7676 115.684 26.4093 114.166 26.36C112.622 26.31 111.671 27.6998 111.241 29.0202C111.174 29.228 111.14 29.3887 111.141 29.5023C111.148 33.1323 111.152 36.763 111.152 40.393C111.152 41.0143 110.718 40.9465 110.2 40.9465H106.474C106.162 40.9465 105.966 40.8201 105.966 40.5001C105.966 36.9951 105.969 33.4901 105.976 29.9843C105.978 28.5789 105.995 26.5714 104.087 26.3693C102.379 26.1879 101.35 27.8626 100.96 29.2659C100.948 29.3073 100.942 29.3494 100.942 29.3923C100.942 32.858 100.947 36.3045 100.957 39.7324C100.958 40.2595 101.041 40.9472 100.44 40.9472C99.156 40.9472 97.872 40.9465 96.5881 40.9465C96.072 40.9465 95.7211 40.9986 95.7211 40.3752V22.6108C95.7211 22.1794 95.9278 22.0594 96.3426 22.0544C97.6244 22.0401 98.9062 22.0409 100.189 22.0573C100.566 22.0623 100.755 22.2408 100.756 22.5929C100.758 23.2699 100.762 23.9291 100.767 24.5697Z" fill="white"/>
<path d="M156.146 29.6042C156.114 28.6294 156.295 27.4125 155.667 26.5712C155.029 25.7157 153.685 25.6521 152.72 25.82C151.707 25.9956 151.239 26.7012 150.893 27.5882C150.757 27.9396 150.493 27.911 150.159 27.8296C148.268 27.3697 146.994 27.0462 146.337 26.8598C146.097 26.7919 146.088 26.537 146.132 26.317C147.043 21.73 152.939 21.1259 156.542 21.9543C158.919 22.5013 160.632 24.1696 161.05 26.5741C161.148 27.1397 161.198 27.7346 161.199 28.3595C161.202 32.3666 161.195 36.3729 161.176 40.38C161.175 40.7656 161.029 40.9463 160.637 40.9463H157.277C156.438 40.9463 156.349 40.8935 156.349 40.0708V38.5739C156.349 38.4918 156.325 38.4839 156.278 38.5518C154.787 40.6892 152.725 41.5926 150.092 41.2634C146.461 40.8092 144.749 37.5513 145.411 34.1812C146.326 29.5328 152.626 29.5635 156.112 29.6399C156.13 29.6399 156.145 29.6257 156.146 29.6064C156.146 29.6057 156.146 29.6049 156.146 29.6042ZM150.234 35.6302C150.41 36.6493 151.273 37.1785 152.258 37.227C154.017 37.3149 155.43 36.4086 156.056 34.7711C156.108 34.6347 156.134 34.4861 156.135 34.3255C156.135 33.832 156.134 33.3385 156.13 32.845C156.13 32.825 156.114 32.8093 156.094 32.8086C155.106 32.7779 154.121 32.8136 153.137 32.9143C151.529 33.0786 149.891 33.6513 150.234 35.6302Z" fill="white"/>
<path d="M182.621 33.1123C182.601 33.9843 182.592 34.7734 182.98 35.5675C183.712 37.063 185.472 37.2872 186.962 37.1108C187.745 37.018 188.503 36.7209 189.037 36.126C189.332 35.7982 189.617 35.2547 189.862 34.8891C190.102 34.5292 190.55 34.7163 190.885 34.8941C191.634 35.2926 192.4 35.6632 193.155 36.0517C193.642 36.3017 194.065 36.4774 193.809 37.0672C192.065 41.0936 187.041 41.9649 183.209 41.035C180.125 40.2866 178.111 37.9742 177.725 34.8548C177.685 34.5406 177.663 34.0657 177.657 33.4294C177.648 32.3453 177.644 31.0063 177.647 29.4123C177.658 23.6334 182.203 21.0446 187.52 21.7488C191.388 22.2608 193.93 25.0632 193.936 28.9838C193.938 30.1143 193.936 31.2455 193.93 32.376C193.927 33.0395 193.376 33.0723 192.86 33.0723C189.459 33.0702 186.058 33.0716 182.657 33.0766C182.637 33.0766 182.621 33.0923 182.621 33.1123ZM189.2 29.6794C189.376 27.1935 188.079 25.638 185.51 25.8244C185.046 25.858 184.627 25.9665 184.254 26.1494C182.83 26.8478 182.556 28.2304 182.6 29.6723C182.601 29.6965 182.621 29.7158 182.645 29.7158H189.161C189.181 29.7158 189.199 29.7001 189.2 29.6794Z" fill="white"/>
<path d="M169.592 24.9895C170.76 22.8156 173.025 21.613 175.494 21.8422C175.794 21.8701 175.851 22.0936 175.856 22.3678C175.881 23.5819 175.881 24.7959 175.857 26.0093C175.85 26.3821 175.752 26.6727 175.332 26.6627C172.913 26.607 170.746 27.1569 169.883 29.6536C169.832 29.8028 169.806 29.9671 169.806 30.147V39.9458C169.806 40.3065 169.864 40.8242 169.467 40.9292C169.426 40.9399 169.269 40.9456 168.994 40.9456H165.122C164.759 40.9456 164.586 40.7785 164.584 40.4279C164.562 33.7135 164.556 27.7625 164.567 22.5742C164.568 22.1172 164.866 22.0593 165.266 22.0515C166.425 22.0293 167.584 22.03 168.743 22.0543C169.189 22.0636 169.509 22.0322 169.511 22.6099C169.514 23.3969 169.518 24.1846 169.523 24.9723C169.523 25.0673 169.547 25.073 169.592 24.9895Z" fill="white"/>
</svg>
