<svg width="76" height="31" viewBox="0 0 76 31" fill="none" xmlns="http://www.w3.org/2000/svg">
<path d="M35.4712 15.0972V23.7731H32.6812V2.34863H40.0776C41.9523 2.34863 43.5506 2.96533 44.8585 4.19858C46.1955 5.43184 46.8639 6.93755 46.8639 8.71572C46.8639 10.537 46.1955 12.0427 44.8585 13.2616C43.5652 14.4805 41.9668 15.0828 40.0776 15.0828H35.4712V15.0972ZM35.4712 4.98726V12.4585H40.1358C41.2402 12.4585 42.1703 12.0857 42.8968 11.3543C43.6379 10.6229 44.0157 9.73393 44.0157 8.73008C44.0157 7.74058 43.6379 6.86577 42.8968 6.13452C42.1702 5.37441 41.2548 5.00161 40.1358 5.00161H35.4712V4.98726Z" fill="white"/>
<path d="M54.1587 8.62988C56.2221 8.62988 57.8497 9.17481 59.0412 10.2646C60.2329 11.3545 60.8286 12.8458 60.8286 14.7389V23.7733H58.1693V21.737H58.0531C56.9051 23.4148 55.3647 24.2466 53.4466 24.2466C51.8046 24.2466 50.4386 23.7733 49.3342 22.8125C48.2298 21.8517 47.6776 20.6614 47.6776 19.2274C47.6776 17.7074 48.2589 16.5028 49.4215 15.6137C50.584 14.7103 52.1389 14.2657 54.0716 14.2657C55.7281 14.2657 57.0942 14.5669 58.1549 15.1691V14.5382C58.1549 13.5774 57.7772 12.7744 57.0069 12.1004C56.2367 11.4264 55.3358 11.0965 54.304 11.0965C52.7491 11.0965 51.514 11.7418 50.613 13.0468L48.1571 11.5268C49.5086 9.59067 51.514 8.62988 54.1587 8.62988ZM50.5549 19.2704C50.5549 19.9874 50.8601 20.5897 51.4849 21.0629C52.0953 21.5362 52.8219 21.7799 53.6501 21.7799C54.8273 21.7799 55.8734 21.3497 56.789 20.4893C57.7046 19.6288 58.1695 18.6249 58.1695 17.4635C57.2976 16.7895 56.0915 16.4453 54.5366 16.4453C53.4031 16.4453 52.4586 16.7177 51.7029 17.2483C50.9327 17.8076 50.5549 18.4817 50.5549 19.2704Z" fill="white"/>
<path d="M75.9996 9.10254L66.6994 30.2115H63.8221L67.2806 22.8262L61.1483 9.10254H64.1853L68.603 19.6283H68.6612L72.9625 9.10254H75.9996Z" fill="white"/>
<path d="M24.1411 10.7656H12.4461V15.4979L19.1815 15.4994C18.9083 17.074 18.0291 18.4162 16.6821 19.3111V19.312C16.6825 19.3117 16.6831 19.3114 16.6836 19.3111L16.5623 22.1395L20.6928 22.3799C20.6923 22.3804 20.6917 22.381 20.6912 22.3814C23.0322 20.2433 24.3737 17.0826 24.3737 13.3484C24.3735 12.4506 24.2922 11.5917 24.1411 10.7656Z" fill="#0085F7"/>
<path d="M16.6833 19.3117C16.6829 19.312 16.6823 19.3123 16.6819 19.3126C15.5661 20.0548 14.1293 20.489 12.4489 20.489C9.20105 20.489 6.44591 18.3294 5.45924 15.4183H5.4588C5.45895 15.4188 5.45909 15.4193 5.45924 15.4198L2.01089 14.8809L1.32422 18.5856C3.3734 22.5975 7.58427 25.3504 12.449 25.3504C15.8107 25.3504 18.635 24.2597 20.6912 22.3819C20.6918 22.3814 20.6923 22.381 20.6928 22.3804L16.6833 19.3117Z" fill="#00A94B"/>
<path d="M5.06979 13.0685C5.06979 12.2511 5.20783 11.461 5.45929 10.7182L4.38252 7.55176H1.32352C0.476389 9.21099 -0.000244141 11.0838 -0.000244141 13.0685C-0.000244141 15.0532 0.477873 16.926 1.32352 18.5853L1.32412 18.5848L5.45929 15.4188C5.45914 15.4184 5.45899 15.418 5.45884 15.4174C5.20769 14.6751 5.06979 13.8855 5.06979 13.0685Z" fill="#FFBB00"/>
<path d="M12.4489 0.786133C7.5852 0.786133 3.37255 3.53945 1.32352 7.55195L5.45913 10.7184C6.4458 7.80728 9.20095 5.64766 12.4488 5.64766C14.284 5.64766 15.9277 6.27153 17.2253 7.49043L20.7783 3.98711C18.6205 2.00357 15.8072 0.786133 12.4489 0.786133Z" fill="#FF4031"/>
</svg>
