<svg width="93" height="62" viewBox="0 0 93 62" fill="none" xmlns="http://www.w3.org/2000/svg">
<path d="M36.5575 14.7529H56.4511V47.2449H36.5575V14.7529Z" fill="#FF5F00"/>
<path d="M38.6066 31.0016C38.6041 27.8729 39.3134 24.7846 40.6806 21.9705C42.0479 19.1564 44.0374 16.6902 46.4985 14.7585C43.4503 12.3629 39.7896 10.8732 35.9348 10.4597C32.08 10.0462 28.1866 10.7255 24.6996 12.4201C21.2126 14.1146 18.2727 16.756 16.2159 20.0424C14.1591 23.3287 13.0683 27.1275 13.0683 31.0044C13.0683 34.8813 14.1591 38.6801 16.2159 41.9664C18.2727 45.2528 21.2126 47.8942 24.6996 49.5887C28.1866 51.2833 32.08 51.9626 35.9348 51.5491C39.7896 51.1356 43.4503 49.6459 46.4985 47.2503C44.0366 45.318 42.0467 42.8509 40.6794 40.0357C39.3121 37.2205 38.6032 34.1311 38.6066 31.0015V31.0016Z" fill="#EB001B"/>
<path d="M77.9573 43.8062V43.1405H78.2443V43.0027H77.5613V43.1405H77.8311V43.8063L77.9573 43.8062ZM79.2832 43.8062V43.0028H79.0765L78.8355 43.5767L78.5944 43.0027H78.3878V43.8062H78.537V43.1978L78.7609 43.7202H78.9158L79.1397 43.1978V43.8062H79.2832Z" fill="#F79E1B"/>
<path d="M79.9317 31.001C79.9316 34.8782 78.8406 38.6772 76.7835 41.9636C74.7263 45.2501 71.7859 47.8915 68.2985 49.5858C64.8111 51.2801 60.9173 51.959 57.0622 51.5449C53.2072 51.1308 49.5464 49.6404 46.4984 47.244C48.9586 45.3106 50.9475 42.8437 52.3151 40.0294C53.6828 37.2151 54.3934 34.127 54.3934 30.998C54.3934 27.8691 53.6828 24.781 52.3151 21.9667C50.9475 19.1524 48.9586 16.6855 46.4984 14.7521C49.5464 12.3557 53.2072 10.8653 57.0622 10.4512C60.9173 10.0371 64.8111 10.716 68.2985 12.4103C71.786 14.1047 74.7263 16.746 76.7835 20.0325C78.8407 23.319 79.9316 27.118 79.9317 30.9952V31.001Z" fill="#F79E1B"/>
</svg>
