<svg width="134" height="135" viewBox="0 0 134 135" fill="none" xmlns="http://www.w3.org/2000/svg">
<g clip-path="url(#clip0_1_44)">
<path d="M114.637 134.5H69.944C66.9432 134.5 64.5107 132.049 64.5107 129.026V56.5376C64.5107 53.5142 66.9434 51.0635 69.944 51.0635H114.637C117.637 51.0635 120.07 53.5145 120.07 56.5376V129.026C120.07 132.049 117.637 134.5 114.637 134.5Z" fill="url(#paint0_linear_1_44)"/>
<path d="M114.637 134.5H69.944C66.9432 134.5 64.5107 132.049 64.5107 129.026V56.5376C64.5107 53.5142 66.9434 51.0635 69.944 51.0635H114.637C117.637 51.0635 120.07 53.5145 120.07 56.5376V129.026C120.07 132.049 117.637 134.5 114.637 134.5Z" fill="url(#paint1_linear_1_44)"/>
<path d="M64.5103 102.889V129.026C64.5103 132.049 66.943 134.5 69.9435 134.5H114.636C117.637 134.5 120.069 132.049 120.069 129.026V102.889H64.5103Z" fill="url(#paint2_linear_1_44)"/>
<path d="M114.636 51.0635H87.0555V134.5H114.636C117.637 134.5 120.07 132.049 120.07 129.026V56.5376C120.07 53.5142 117.637 51.0635 114.636 51.0635Z" fill="url(#paint3_linear_1_44)"/>
<path d="M71.0221 68.7679C70.8579 68.7679 70.6862 68.7422 70.5069 68.6904C70.3274 68.6388 70.1609 68.569 70.0074 68.481C69.8536 68.3934 69.7279 68.29 69.6305 68.1712C69.5331 68.0526 69.4845 67.9207 69.4845 67.776C69.4845 67.7451 69.4946 67.6883 69.5154 67.6056L72.3754 58.1552C72.4573 57.8869 72.6495 57.6854 72.9521 57.5509C73.2542 57.4169 73.5849 57.3496 73.9439 57.3496C74.3026 57.3496 74.6333 57.4169 74.9357 57.5509C75.2378 57.6854 75.43 57.8867 75.5124 58.1552L78.3877 67.6056C78.408 67.6883 78.4186 67.7451 78.4186 67.776C78.4186 67.9207 78.3698 68.0523 78.2726 68.1712C78.1752 68.29 78.0495 68.3934 77.8957 68.481C77.7419 68.569 77.5754 68.6386 77.3962 68.6904C77.2167 68.7422 77.0447 68.7679 76.8811 68.7679C76.6862 68.7679 76.5197 68.7344 76.3813 68.6671C76.2431 68.6001 76.148 68.4839 76.0968 68.3185L75.5739 66.382H72.3294L71.8065 68.3185C71.7551 68.4839 71.6606 68.6001 71.5221 68.6671C71.3834 68.7344 71.2166 68.7679 71.0221 68.7679ZM75.0663 64.5231L73.9436 60.3712L72.8212 64.5231H75.0663Z" fill="url(#paint4_linear_1_44)"/>
<path d="M113.558 116.796C113.722 116.796 113.894 116.822 114.073 116.873C114.253 116.925 114.419 116.995 114.573 117.083C114.726 117.17 114.852 117.274 114.95 117.393C115.047 117.511 115.095 117.643 115.095 117.788C115.095 117.819 115.085 117.875 115.065 117.958L112.205 127.409C112.123 127.677 111.931 127.878 111.628 128.013C111.326 128.147 110.995 128.214 110.636 128.214C110.277 128.214 109.947 128.147 109.644 128.013C109.342 127.878 109.15 127.677 109.068 127.409L106.192 117.958C106.172 117.875 106.161 117.819 106.161 117.788C106.161 117.643 106.21 117.511 106.307 117.393C106.405 117.274 106.531 117.17 106.684 117.083C106.838 116.995 107.005 116.925 107.184 116.873C107.363 116.822 107.535 116.796 107.699 116.796C107.894 116.796 108.06 116.829 108.199 116.897C108.337 116.964 108.432 117.08 108.483 117.245L109.006 119.182H112.251L112.773 117.245C112.825 117.08 112.919 116.964 113.058 116.897C113.197 116.829 113.363 116.796 113.558 116.796ZM109.514 121.041L110.637 125.193L111.759 121.041H109.514Z" fill="url(#paint5_linear_1_44)"/>
<path d="M120.07 129.026V95.6987L109.514 85.0635H92.2899V105.03L82.6508 109.989L106.829 134.5H114.636C117.637 134.5 120.07 132.049 120.07 129.026Z" fill="url(#paint6_linear_1_44)"/>
<path d="M94.6974 100.184L93.9565 96.2453L92.2899 95.8721L90.6232 96.2453L89.8824 100.184C89.4831 102.308 88.0565 104.064 86.108 104.968C83.8519 106.015 82.4073 107.622 82.4073 109.424C82.4073 112.58 102.172 112.58 102.172 109.424C102.172 107.622 100.728 106.015 98.4715 104.968C96.5233 104.064 95.0969 102.308 94.6974 100.184Z" fill="url(#paint7_linear_1_44)"/>
<path d="M94.6974 100.184L93.9565 96.2453L92.2899 95.8721L90.6232 96.2453L89.8824 100.184C89.4831 102.308 88.0565 104.064 86.108 104.968C83.8519 106.015 82.4073 107.622 82.4073 109.424C82.4073 112.58 102.172 112.58 102.172 109.424C102.172 107.622 100.728 106.015 98.4715 104.968C96.5233 104.064 95.0969 102.308 94.6974 100.184Z" fill="url(#paint8_linear_1_44)"/>
<path d="M94.6974 100.184L93.9565 96.2453L92.2899 95.8721L90.6232 96.2453L89.8824 100.184C89.4831 102.308 88.0565 104.064 86.108 104.968C83.8519 106.015 82.4073 107.622 82.4073 109.424C82.4073 112.58 102.172 112.58 102.172 109.424C102.172 107.622 100.728 106.015 98.4715 104.968C96.5233 104.064 95.0969 102.308 94.6974 100.184Z" fill="url(#paint9_linear_1_44)"/>
<path d="M109.84 100.492C105.766 104.599 98.5294 104.227 92.2898 100.058C86.0529 104.227 78.8158 104.599 74.7401 100.492C73.2449 98.9858 72.3482 97.0499 72.0164 94.8917C71.1571 89.2985 74.4681 83.8972 79.7317 81.9204L83.1331 80.643C85.6705 79.6901 87.9143 78.0815 89.64 75.9791L90.9165 74.4237C91.6293 73.5554 92.9507 73.5554 93.6632 74.4237L94.9392 75.9786C96.6648 78.0815 98.9092 79.6901 101.447 80.643L104.847 81.9196C110.112 83.8964 113.423 89.2985 112.563 94.8922C112.232 97.0501 111.335 98.9858 109.84 100.492Z" fill="url(#paint10_linear_1_44)"/>
<path d="M109.84 100.492C111.335 98.9852 112.231 97.0495 112.563 94.8917C113.423 89.2979 110.112 83.8958 104.847 81.9191L101.447 80.6421C98.9094 79.6892 96.665 78.0807 94.9394 75.9778L93.6634 74.4229C93.307 73.9887 92.7984 73.7715 92.29 73.7715V100.057C98.5293 104.226 105.766 104.598 109.84 100.492Z" fill="url(#paint11_linear_1_44)"/>
<path d="M72.0165 94.8914C72.3479 97.0493 73.2449 98.9854 74.7401 100.492C78.8158 104.598 86.0529 104.227 92.2899 100.057C98.5295 104.227 105.767 104.598 109.84 100.492C111.335 98.9854 112.232 97.0498 112.563 94.8919C112.932 92.4959 112.533 90.1362 111.545 88.0645H73.0355C72.0476 90.136 71.6484 92.4956 72.0165 94.8914Z" fill="url(#paint12_linear_1_44)"/>
<path d="M92.2899 100.057C86.0529 104.226 78.8158 104.598 74.7401 100.491C73.2449 98.9849 72.3482 97.0493 72.0167 94.8914C71.1572 89.2979 74.4689 83.8961 79.7331 81.9196L82.5071 80.8779C81.5823 85.8663 83.7592 92.1292 88.6142 97.0207C89.7727 98.1883 91.0118 99.2037 92.2899 100.057Z" fill="url(#paint13_linear_1_44)"/>
<path d="M86.2355 83.9365H41.5429C38.5421 83.9365 36.1096 81.4855 36.1096 78.4623V5.97411C36.1096 2.951 38.5421 0.5 41.5429 0.5H86.2355C89.2364 0.5 91.6688 2.951 91.6688 5.97411V78.4623C91.6691 81.4857 89.2364 83.9365 86.2355 83.9365Z" fill="url(#paint14_linear_1_44)"/>
<path d="M36.1096 52.3252V78.4623C36.1096 81.4856 38.5423 83.9364 41.5429 83.9364H86.2355C89.2364 83.9364 91.6688 81.4854 91.6688 78.4623V52.3252H36.1096Z" fill="url(#paint15_linear_1_44)"/>
<path d="M86.2355 0.5H58.6549V83.9365H86.2358C89.2366 83.9365 91.669 81.4855 91.669 78.4623V5.97411C91.669 2.951 89.2363 0.5 86.2355 0.5Z" fill="url(#paint16_linear_1_44)"/>
<path d="M67.2921 24.625V83.937H86.2355C89.2363 83.937 91.6688 81.486 91.6688 78.4629V49.1849L67.2921 24.625Z" fill="url(#paint17_linear_1_44)"/>
<path d="M82.5176 79.2729H45.2612C42.67 79.2729 40.5696 77.1566 40.5696 74.546V9.89096C40.5696 7.28032 42.67 5.16406 45.2612 5.16406H82.5176C85.1087 5.16406 87.2092 7.28032 87.2092 9.89096V74.546C87.2092 77.1566 85.1085 79.2729 82.5176 79.2729Z" fill="url(#paint18_linear_1_44)"/>
<path d="M40.5696 51.1953V74.4106C40.5696 77.0958 42.6116 79.2728 45.1305 79.2728H82.648C85.1669 79.2728 87.2089 77.0958 87.2089 74.4106V51.1953H40.5696Z" fill="url(#paint19_linear_1_44)"/>
<path d="M82.648 5.16406H59.4951V79.2729H82.648C85.167 79.2729 87.209 77.0959 87.209 74.4106V10.0263C87.2093 7.34104 85.167 5.16406 82.648 5.16406Z" fill="url(#paint20_linear_1_44)"/>
<path d="M87.2091 44.6915L67.2921 24.625V79.2732H82.6479C85.1669 79.2732 87.2089 77.0962 87.2089 74.411L87.2091 44.6915Z" fill="url(#paint21_linear_1_44)"/>
<path d="M63.4301 106.436H18.7372C15.7364 106.436 13.304 103.985 13.304 100.962V28.4741C13.304 25.4507 15.7367 23 18.7372 23H63.4299C66.4307 23 68.8631 25.451 68.8631 28.4741V100.962C68.8634 103.986 66.4307 106.436 63.4301 106.436Z" fill="url(#paint22_linear_1_44)"/>
<path d="M13.304 74.8252V100.962C13.304 103.986 15.7367 106.436 18.7372 106.436H63.4299C66.4307 106.436 68.8631 103.985 68.8631 100.962V74.8252H13.304Z" fill="url(#paint23_linear_1_44)"/>
<path d="M63.4301 23H35.8492V106.436H63.4301C66.4309 106.436 68.8634 103.985 68.8634 100.962V28.4741C68.8634 25.451 66.4307 23 63.4301 23Z" fill="url(#paint24_linear_1_44)"/>
<path d="M68.8634 100.963V62.5968L58.6336 52.29L27.3737 74.0637L59.5051 106.437H63.4299C66.4307 106.437 68.8634 103.986 68.8634 100.963Z" fill="url(#paint25_linear_1_44)"/>
<path d="M58.6336 52.2897C54.5592 48.1846 47.3221 48.5568 41.0836 52.7247C34.8453 48.5568 27.608 48.1846 23.5336 52.2897C18.6237 57.2364 20.1665 66.8109 26.9794 73.6753C31.2237 77.9515 36.512 80.1664 41.0836 80.0332C45.6552 80.1667 50.9435 77.9517 55.1878 73.6753C62.0007 66.8109 63.5435 57.2364 58.6336 52.2897Z" fill="url(#paint26_linear_1_44)"/>
<path d="M37.4081 55.7614C38.5675 54.5933 39.8047 53.5794 41.0841 52.7247C34.8458 48.5568 27.6085 48.1846 23.5341 52.2897C18.6242 57.2364 20.167 66.8109 26.9799 73.6753C31.2242 77.9515 36.5125 80.1664 41.0838 80.0332C38.3173 79.9523 35.8132 79.012 33.9624 77.147C29.0525 72.1999 30.5953 62.6255 37.4081 55.7614Z" fill="url(#paint27_linear_1_44)"/>
<path d="M51.8363 49.417L27.3739 74.0633C31.5483 78.0851 36.6527 80.1621 41.0838 80.0329C45.6554 80.1663 50.9437 77.9514 55.188 73.6749C62.0009 66.8108 63.5437 57.2361 58.6338 52.2894C56.8552 50.4976 54.4739 49.5594 51.8363 49.417Z" fill="url(#paint28_linear_1_44)"/>
<path d="M26.9797 73.6753C31.224 77.9515 36.5123 80.1664 41.0839 80.0332C45.6555 80.1667 50.9438 77.9518 55.1881 73.6753C59.7224 69.107 61.9213 63.3384 61.4381 58.5322H20.7297C20.2466 63.3384 22.4455 69.107 26.9797 73.6753Z" fill="url(#paint29_linear_1_44)"/>
<path d="M19.8158 40.7044C19.6516 40.7044 19.4799 40.6788 19.3006 40.6269C19.1211 40.5754 18.9546 40.5055 18.8011 40.4176C18.6473 40.3299 18.5216 40.2265 18.4242 40.1077C18.3268 39.9891 18.2782 39.8572 18.2782 39.7125C18.2782 39.6816 18.2883 39.6248 18.3091 39.5421L21.1691 30.0917C21.251 29.8234 21.4432 29.6219 21.7458 29.4874C22.0479 29.3534 22.3786 29.2861 22.7376 29.2861C23.0963 29.2861 23.427 29.3534 23.7294 29.4874C24.0315 29.6219 24.2237 29.8232 24.3061 30.0917L27.1814 39.5421C27.2017 39.6248 27.2123 39.6816 27.2123 39.7125C27.2123 39.8572 27.1635 39.9889 27.0663 40.1077C26.9689 40.2265 26.8432 40.3299 26.6894 40.4176C26.5356 40.5055 26.3691 40.5751 26.1899 40.6269C26.0104 40.6788 25.8384 40.7044 25.6748 40.7044C25.4799 40.7044 25.3134 40.6709 25.175 40.6036C25.0368 40.5366 24.9417 40.4204 24.8905 40.255L24.3676 38.3186H21.1232L20.6002 40.255C20.5488 40.4204 20.4543 40.5366 20.3158 40.6036C20.1771 40.6709 20.0103 40.7044 19.8158 40.7044ZM23.8598 36.4593L22.7371 32.3074L21.6146 36.4593H23.8598Z" fill="url(#paint30_linear_1_44)"/>
<path d="M62.3516 88.7324C62.5158 88.7324 62.6875 88.7581 62.8668 88.8099C63.0463 88.8614 63.2128 88.9313 63.3663 89.0193C63.5201 89.1069 63.6458 89.2103 63.7432 89.3291C63.8406 89.4477 63.8892 89.5796 63.8892 89.7243C63.8892 89.7552 63.8791 89.812 63.8583 89.8947L60.9983 99.3451C60.9164 99.6134 60.7242 99.8149 60.4216 99.9494C60.1195 100.083 59.7888 100.151 59.4298 100.151C59.0711 100.151 58.7404 100.083 58.438 99.9494C58.1359 99.8149 57.9437 99.6136 57.8613 99.3451L54.986 89.8947C54.9657 89.812 54.9551 89.7552 54.9551 89.7243C54.9551 89.5796 55.0039 89.448 55.1011 89.3291C55.1985 89.2103 55.3242 89.1069 55.478 89.0193C55.6318 88.9313 55.7983 88.8617 55.9775 88.8099C56.157 88.7581 56.329 88.7324 56.4926 88.7324C56.6875 88.7324 56.854 88.7659 56.9924 88.8332C57.1306 88.9002 57.2257 89.0164 57.2769 89.1818L57.7998 91.1182H61.0442L61.5672 89.1818C61.6186 89.0164 61.7131 88.9002 61.8516 88.8332C61.9903 88.7659 62.1571 88.7324 62.3516 88.7324ZM58.3074 92.9775L59.4301 97.1294L60.5525 92.9775H58.3074Z" fill="url(#paint31_linear_1_44)"/>
</g>
<defs>
<linearGradient id="paint0_linear_1_44" x1="66.4273" y1="72.7021" x2="124.307" y2="116.971" gradientUnits="userSpaceOnUse">
<stop stop-color="#EAF9FA"/>
<stop offset="1" stop-color="#B3DAFE"/>
</linearGradient>
<linearGradient id="paint1_linear_1_44" x1="85.624" y1="88.444" x2="71.0617" y2="79.1092" gradientUnits="userSpaceOnUse">
<stop stop-color="#7BACDF" stop-opacity="0"/>
<stop offset="1" stop-color="#7BACDF"/>
</linearGradient>
<linearGradient id="paint2_linear_1_44" x1="92.2901" y1="125.685" x2="92.2901" y2="134.418" gradientUnits="userSpaceOnUse">
<stop stop-color="#7BACDF" stop-opacity="0"/>
<stop offset="1" stop-color="#7BACDF"/>
</linearGradient>
<linearGradient id="paint3_linear_1_44" x1="113.721" y1="92.7817" x2="119.611" y2="92.7817" gradientUnits="userSpaceOnUse">
<stop stop-color="#7BACDF" stop-opacity="0"/>
<stop offset="1" stop-color="#7BACDF"/>
</linearGradient>
<linearGradient id="paint4_linear_1_44" x1="70.2009" y1="62.088" x2="80.5498" y2="66.2975" gradientUnits="userSpaceOnUse">
<stop stop-color="#5A5A5A"/>
<stop offset="1" stop-color="#444444"/>
</linearGradient>
<linearGradient id="paint5_linear_1_44" x1="106.526" y1="116.945" x2="113.289" y2="123.658" gradientUnits="userSpaceOnUse">
<stop stop-color="#5A5A5A"/>
<stop offset="1" stop-color="#444444"/>
</linearGradient>
<linearGradient id="paint6_linear_1_44" x1="108.447" y1="112.972" x2="95.3282" y2="94.5012" gradientUnits="userSpaceOnUse">
<stop stop-color="#7BACDF" stop-opacity="0"/>
<stop offset="1" stop-color="#7BACDF"/>
</linearGradient>
<linearGradient id="paint7_linear_1_44" x1="88.6542" y1="103.831" x2="95.1678" y2="103.831" gradientUnits="userSpaceOnUse">
<stop stop-color="#5A5A5A"/>
<stop offset="1" stop-color="#444444"/>
</linearGradient>
<linearGradient id="paint8_linear_1_44" x1="92.2901" y1="106.6" x2="92.2901" y2="111.079" gradientUnits="userSpaceOnUse">
<stop stop-color="#433F43" stop-opacity="0"/>
<stop offset="1" stop-color="#1A1A1A"/>
</linearGradient>
<linearGradient id="paint9_linear_1_44" x1="93.9493" y1="105.037" x2="95.5435" y2="101.127" gradientUnits="userSpaceOnUse">
<stop stop-color="#433F43" stop-opacity="0"/>
<stop offset="1" stop-color="#1A1A1A"/>
</linearGradient>
<linearGradient id="paint10_linear_1_44" x1="86.5062" y1="83.9323" x2="97.9851" y2="101.765" gradientUnits="userSpaceOnUse">
<stop stop-color="#5A5A5A"/>
<stop offset="1" stop-color="#444444"/>
</linearGradient>
<linearGradient id="paint11_linear_1_44" x1="105.073" y1="92.2159" x2="111.845" y2="94.8864" gradientUnits="userSpaceOnUse">
<stop stop-color="#433F43" stop-opacity="0"/>
<stop offset="1" stop-color="#1A1A1A"/>
</linearGradient>
<linearGradient id="paint12_linear_1_44" x1="92.2901" y1="95.4996" x2="92.2901" y2="104.642" gradientUnits="userSpaceOnUse">
<stop stop-color="#433F43" stop-opacity="0"/>
<stop offset="1" stop-color="#1A1A1A"/>
</linearGradient>
<linearGradient id="paint13_linear_1_44" x1="82.6741" y1="99.3527" x2="83.8941" y2="103.172" gradientUnits="userSpaceOnUse">
<stop stop-color="#433F43" stop-opacity="0"/>
<stop offset="1" stop-color="#1A1A1A"/>
</linearGradient>
<linearGradient id="paint14_linear_1_44" x1="38.0264" y1="22.1386" x2="95.9057" y2="66.4071" gradientUnits="userSpaceOnUse">
<stop stop-color="#EAF9FA"/>
<stop offset="1" stop-color="#B3DAFE"/>
</linearGradient>
<linearGradient id="paint15_linear_1_44" x1="63.8892" y1="75.1214" x2="63.8892" y2="83.8539" gradientUnits="userSpaceOnUse">
<stop stop-color="#7BACDF" stop-opacity="0"/>
<stop offset="1" stop-color="#7BACDF"/>
</linearGradient>
<linearGradient id="paint16_linear_1_44" x1="85.3206" y1="42.2182" x2="91.2106" y2="42.2182" gradientUnits="userSpaceOnUse">
<stop stop-color="#7BACDF" stop-opacity="0"/>
<stop offset="1" stop-color="#7BACDF"/>
</linearGradient>
<linearGradient id="paint17_linear_1_44" x1="84.34" y1="54.2809" x2="70.6233" y2="54.2809" gradientUnits="userSpaceOnUse">
<stop stop-color="#7BACDF" stop-opacity="0"/>
<stop offset="1" stop-color="#7BACDF"/>
</linearGradient>
<linearGradient id="paint18_linear_1_44" x1="41.5019" y1="24.8375" x2="91.6033" y2="63.1568" gradientUnits="userSpaceOnUse">
<stop stop-color="#BBEC6C"/>
<stop offset="1" stop-color="#81B823"/>
</linearGradient>
<linearGradient id="paint19_linear_1_44" x1="63.8893" y1="70.4039" x2="63.8893" y2="85.2674" gradientUnits="userSpaceOnUse">
<stop stop-color="#026841" stop-opacity="0"/>
<stop offset="0.2391" stop-color="#0A6644" stop-opacity="0.239"/>
<stop offset="0.6113" stop-color="#20604D" stop-opacity="0.611"/>
<stop offset="1" stop-color="#3E5959"/>
</linearGradient>
<linearGradient id="paint20_linear_1_44" x1="76.3747" y1="42.2185" x2="94.8653" y2="42.2185" gradientUnits="userSpaceOnUse">
<stop stop-color="#026841" stop-opacity="0"/>
<stop offset="0.2391" stop-color="#0A6644" stop-opacity="0.239"/>
<stop offset="0.6113" stop-color="#20604D" stop-opacity="0.611"/>
<stop offset="1" stop-color="#3E5959"/>
</linearGradient>
<linearGradient id="paint21_linear_1_44" x1="81.4621" y1="51.949" x2="64.8638" y2="51.949" gradientUnits="userSpaceOnUse">
<stop stop-color="#026841" stop-opacity="0"/>
<stop offset="0.2391" stop-color="#0A6644" stop-opacity="0.239"/>
<stop offset="0.6113" stop-color="#20604D" stop-opacity="0.611"/>
<stop offset="1" stop-color="#3E5959"/>
</linearGradient>
<linearGradient id="paint22_linear_1_44" x1="15.2208" y1="44.6389" x2="73.1003" y2="88.9071" gradientUnits="userSpaceOnUse">
<stop stop-color="#EAF9FA"/>
<stop offset="1" stop-color="#B3DAFE"/>
</linearGradient>
<linearGradient id="paint23_linear_1_44" x1="41.0835" y1="97.6214" x2="41.0835" y2="106.354" gradientUnits="userSpaceOnUse">
<stop stop-color="#7BACDF" stop-opacity="0"/>
<stop offset="1" stop-color="#7BACDF"/>
</linearGradient>
<linearGradient id="paint24_linear_1_44" x1="62.515" y1="64.7182" x2="68.4049" y2="64.7182" gradientUnits="userSpaceOnUse">
<stop stop-color="#7BACDF" stop-opacity="0"/>
<stop offset="1" stop-color="#7BACDF"/>
</linearGradient>
<linearGradient id="paint25_linear_1_44" x1="58.4019" y1="82.1896" x2="45.241" y2="64.716" gradientUnits="userSpaceOnUse">
<stop stop-color="#7BACDF" stop-opacity="0"/>
<stop offset="1" stop-color="#7BACDF"/>
</linearGradient>
<linearGradient id="paint26_linear_1_44" x1="37.3477" y1="55.1877" x2="51.5254" y2="75.7095" gradientUnits="userSpaceOnUse">
<stop stop-color="#FD4755"/>
<stop offset="0.3362" stop-color="#E43F48"/>
<stop offset="1" stop-color="#A72B2B"/>
</linearGradient>
<linearGradient id="paint27_linear_1_44" x1="37.4926" y1="57.0598" x2="42.0749" y2="49.3817" gradientUnits="userSpaceOnUse">
<stop stop-color="#A72B2B" stop-opacity="0"/>
<stop offset="1" stop-color="#481F05"/>
</linearGradient>
<linearGradient id="paint28_linear_1_44" x1="46.4875" y1="66.8666" x2="54.0509" y2="74.7636" gradientUnits="userSpaceOnUse">
<stop stop-color="#A72B2B" stop-opacity="0"/>
<stop offset="1" stop-color="#481F05"/>
</linearGradient>
<linearGradient id="paint29_linear_1_44" x1="39.9108" y1="68.8599" x2="38.3283" y2="80.7383" gradientUnits="userSpaceOnUse">
<stop stop-color="#A72B2B" stop-opacity="0"/>
<stop offset="1" stop-color="#481F05"/>
</linearGradient>
<linearGradient id="paint30_linear_1_44" x1="18.9946" y1="34.0243" x2="29.3435" y2="38.2341" gradientUnits="userSpaceOnUse">
<stop stop-color="#FD4755"/>
<stop offset="0.3362" stop-color="#E43F48"/>
<stop offset="1" stop-color="#A72B2B"/>
</linearGradient>
<linearGradient id="paint31_linear_1_44" x1="55.3195" y1="88.8816" x2="62.0829" y2="95.5945" gradientUnits="userSpaceOnUse">
<stop stop-color="#FD4755"/>
<stop offset="0.3362" stop-color="#E43F48"/>
<stop offset="1" stop-color="#A72B2B"/>
</linearGradient>
<clipPath id="clip0_1_44">
<rect width="133" height="134" fill="white" transform="translate(0.18689 0.5)"/>
</clipPath>
</defs>
</svg>
