<svg width="189" height="67" viewBox="0 0 189 67" fill="none" xmlns="http://www.w3.org/2000/svg">
<path d="M14.5081 16.1504C15.9861 19.4389 18.0273 22.5262 19.642 25.7772C19.6849 25.8657 19.6501 25.9703 19.5642 26.0132C19.5428 26.0239 19.5213 26.0293 19.4972 26.032C18.0863 26.1312 14.6235 26.5872 13.8349 25.0744C11.7534 21.0912 10.4042 18.5993 9.7846 17.5935C9.24814 16.7244 6.70801 16.5045 5.75043 16.7244C5.42051 16.7968 5.25152 17.0034 5.24347 17.3387C5.17642 19.7501 5.14959 22.1266 5.16569 24.4682C5.1791 26.5819 2.64701 26.2358 1.24954 26.0534C0.951804 26.0159 0.745267 25.8576 0.629929 25.576C0.509225 25.2809 0.447533 24.9108 0.442168 24.4682C0.348288 16.8773 0.3161 9.28642 0.345605 1.69553C0.348288 0.469721 0.396569 0.713809 1.49899 0.665528C5.59486 0.485814 9.34738 0.558236 12.7512 0.880112C13.4754 0.947169 14.2479 1.22881 15.0687 1.72235C18.5021 3.77967 19.7681 6.83481 18.8668 10.8878C18.3438 13.2374 16.6298 14.4632 14.6717 15.6327C14.4947 15.7373 14.425 15.96 14.5081 16.1504ZM12.7673 5.75921C11.3108 4.62191 7.77556 4.77749 5.84163 5.10473C5.52243 5.15837 5.3454 5.34613 5.30517 5.66532C5.08254 7.49465 5.01011 9.33739 5.09058 11.1962C5.12009 11.8722 4.86527 12.7841 5.91673 12.7171C8.18863 12.5696 12.1692 13.2213 13.6364 10.8502C14.6556 9.20327 14.3338 6.97965 12.7673 5.75921Z" fill="#62A7E0"/>
<path d="M149.696 8.80361C150.935 8.43345 152.265 7.84335 153.395 7.67436C159.28 6.78652 162.692 12.3657 162.439 17.6605C162.265 21.3326 160.505 24.6265 157.112 26.0561C154.865 27.003 152.483 26.6596 149.969 25.0315C149.894 24.9859 149.8 24.9913 149.733 25.0449C148.473 26.0534 147.118 26.4209 145.672 26.1446C145.434 26.099 145.259 25.8925 145.254 25.6484C145.144 17.631 145.144 9.61366 145.254 1.59628C145.262 1.17516 145.469 0.917664 145.879 0.821101C147.078 0.53946 148.019 0.499226 148.703 0.70308C149.165 0.839877 149.401 1.15371 149.411 1.6392L149.562 8.70705C149.562 8.76606 149.613 8.80897 149.669 8.80897C149.677 8.80897 149.685 8.80897 149.696 8.80361ZM150.605 13.0014C148.985 15.1714 149.004 18.8247 150.656 20.9571C152.273 23.0439 155.616 22.8266 156.976 20.5789C158.223 18.5162 158.44 14.9702 156.788 13.039C155.262 11.2552 152.107 10.987 150.605 13.0014Z" fill="#62A7E0"/>
<path d="M164.446 0.941291C164.459 0.876916 164.513 0.82327 164.58 0.809858C165.865 0.544311 167.072 0.509441 168.204 0.702566C168.458 0.745483 168.646 0.962749 168.654 1.22025C168.705 2.8028 168.724 4.36658 168.708 5.91158C168.649 11.9709 168.804 18.0221 168.756 24.0814C168.753 24.5777 168.692 25.0954 168.576 25.6345C168.512 25.9295 168.332 26.1093 168.037 26.1736C167.053 26.3882 164.298 26.7047 164.279 25.0202C164.196 17.1745 164.223 9.32882 164.365 1.48311C164.368 1.34632 164.395 1.1666 164.446 0.941291Z" fill="#62A7E0"/>
<path d="M139.457 4.79645C140.444 4.79645 141.244 3.99665 141.244 3.01004C141.244 2.02343 140.444 1.22363 139.457 1.22363C138.471 1.22363 137.671 2.02343 137.671 3.01004C137.671 3.99665 138.471 4.79645 139.457 4.79645Z" fill="#62A7E0"/>
<path d="M26.0608 18.5622C26.4309 20.8824 29.0462 22.5213 31.192 22.4059C32.9114 22.3121 34.2847 21.5744 35.312 20.193C35.4086 20.0616 35.5802 20.0214 35.7144 20.0992L38.9116 21.9768C39.0431 22.0546 39.0833 22.2289 39.0002 22.3657C39.0002 22.3657 39.0002 22.3711 38.9975 22.3711C36.047 27.0114 28.3944 28.0817 24.3334 24.4445C19.8835 20.4559 20.1088 11.9262 25.4841 8.70746C28.5178 6.88887 32.3239 7.04712 35.1859 9.05884C38.0479 11.0706 38.579 13.6643 39.1048 16.9743C39.2899 18.133 38.6568 17.9802 37.8736 17.9802C34.0808 17.9775 30.2881 17.9989 26.4953 18.0472C26.2485 18.0499 26.0527 18.2511 26.0554 18.4978C26.0554 18.5193 26.0554 18.5408 26.0608 18.5622ZM34.1077 14.0828C32.9891 9.65163 27.2544 10.4992 26.2271 14.1337C26.1091 14.5522 26.2673 14.7614 26.7018 14.7614C29.0381 14.7614 31.7285 15.0404 33.7616 14.63C34.003 14.5817 34.1613 14.3456 34.113 14.1042C34.113 14.0962 34.1103 14.0908 34.1077 14.0828Z" fill="#62A7E0"/>
<path d="M120.52 16.9147C117.224 13.9696 119.281 9.35333 123.012 8.14361C126.507 7.009 129.769 7.4489 132.792 9.46062C133.235 9.75299 133.578 10.0668 133.825 10.4021C134.042 10.6972 134.031 10.9842 133.792 11.2604C132.843 12.3602 131.727 14.109 130.214 12.556C128.699 10.9976 126.888 10.5818 124.783 11.3087C124.311 11.4723 123.965 11.7406 123.747 12.108C122.851 13.6262 124.386 14.2002 125.595 14.455C128.967 15.1605 134.334 15.469 134.653 20.0637C134.949 24.2669 130.598 26.6005 126.883 26.6541C123.737 26.6997 120.904 25.7341 118.385 23.7519C118.222 23.6231 118.192 23.3898 118.318 23.2262C118.329 23.2127 118.34 23.1993 118.353 23.1886C118.983 22.5744 120.182 21.319 121.033 21.1715C121.821 21.0347 123.117 22.2525 123.865 22.5636C125.544 23.2583 127.229 23.1859 128.921 22.341C129.742 21.9333 130.032 21.2922 129.79 20.4151C129.707 20.1174 129.522 19.9189 129.233 19.8143C126.44 18.8138 122.757 18.913 120.52 16.9147Z" fill="#62A7E0"/>
<path d="M173.539 9.85003C176.438 6.96388 181.677 6.73857 184.836 9.1124C187.631 11.21 188.57 14.1685 188.576 17.5536C188.576 17.7065 188.46 17.8325 188.31 17.8459C184.308 18.2188 180.134 17.9398 176.1 18.0471C175.631 18.0605 175.465 18.2912 175.596 18.7392C176.728 22.5909 181.293 23.5351 184.166 20.8796C185.494 19.6538 187.111 20.9467 188.109 21.7996C188.527 22.1564 188.543 22.5292 188.16 22.9208C186.043 25.0828 183.318 26.5366 180.277 26.6197C171.328 26.8719 167.592 15.7645 173.539 9.85003ZM179.37 11.1348C177.361 11.3333 176.358 12.527 175.607 14.2731C175.55 14.4072 175.612 14.5601 175.743 14.6165C175.77 14.6272 175.797 14.6352 175.827 14.6352C178.222 14.8096 180.663 14.831 183.149 14.6943C183.565 14.6701 183.71 14.4609 183.584 14.0666C182.9 11.8993 181.494 10.9229 179.37 11.1348Z" fill="#62A7E0"/>
<path d="M42.0794 23.9689C41.6368 23.6148 41.6234 23.2715 42.0445 22.9362L44.0133 21.3698C44.3003 21.1418 44.6463 21.1149 45.046 21.2893C45.5905 21.528 46.0814 21.7962 46.5186 22.0886C48.1789 23.1937 49.9814 23.3707 51.9288 22.6224C53.3101 22.094 53.9324 20.1091 52.1353 19.6209C49.6461 18.9423 47.3259 18.6311 45.2901 17.8291C41.8058 16.4531 41.3712 11.9495 43.9838 9.56497C44.7643 8.85148 45.8453 8.31771 47.2213 7.96096C50.483 7.11872 53.6159 7.74906 56.6228 9.8493C58.0444 10.8417 56.95 11.6518 56.0863 12.5128C55.1287 13.465 54.1577 13.3685 53.1707 12.2285C51.9529 10.823 49.4128 10.721 47.8436 11.5177C46.3925 12.2526 46.5883 13.9425 48.313 14.326C52.0763 15.1656 59.4714 15.7208 57.8808 21.8016C57.4704 23.3707 56.5235 24.5402 55.0885 25.3664C51.0811 27.6678 45.5315 26.7424 42.0794 23.9689Z" fill="#62A7E0"/>
<path d="M100.47 8.27211C100.516 8.22115 100.578 8.18896 100.647 8.18628C101.401 8.13531 103.633 7.90732 104.223 8.32307C104.51 8.52425 104.66 8.81125 104.679 9.17873C104.698 9.5462 104.851 9.61594 105.138 9.38258C108.236 6.86391 113.549 6.63323 115.26 10.8015C115.537 11.4748 115.695 12.4377 115.735 13.685C115.859 17.518 115.885 21.3858 115.816 25.2886C115.808 25.7151 115.601 25.9887 115.193 26.112C114.22 26.4044 113.136 26.4044 111.942 26.1094C111.862 26.0906 111.798 26.0262 111.774 25.9457C111.521 25.0901 111.417 24.0869 111.46 22.9416C111.537 20.8279 111.511 18.2878 111.377 15.3239C111.293 13.4838 110.566 11.8878 108.536 11.92C106.087 11.9576 104.657 14.0364 104.609 16.37C104.547 19.1864 104.531 22.094 104.555 25.0955C104.558 25.6078 104.311 25.9189 103.812 26.0289C103.161 26.1737 102.418 26.2113 101.581 26.1389C100.484 26.045 100.154 25.707 100.127 24.618C100.06 21.9599 100.017 19.299 100.001 16.6382C99.9929 15.3426 99.8185 8.99365 100.47 8.27211Z" fill="#62A7E0"/>
<path d="M60.5122 31.7154C60.3513 31.6698 60.2332 31.5303 60.2198 31.364C60.185 30.9966 60.0938 30.6049 60.0938 30.2375C60.1045 25.7339 60.0884 21.233 60.0428 16.7294C60.0267 15.0986 60.1662 12.5638 60.0267 10.469C59.9999 10.0747 60.0535 9.42019 60.1903 8.50284C60.2037 8.42506 60.2654 8.36068 60.3459 8.34459C61.561 8.08709 62.6983 8.04685 63.7551 8.22657C64.0797 8.28021 64.3077 8.45724 64.4418 8.75498C64.8387 9.63477 64.9702 9.15196 65.4128 8.86227C67.4486 7.53185 69.6159 7.25826 71.912 8.0388C78.7679 10.367 79.2936 21.8177 73.4006 25.3959C70.6888 27.0429 67.8483 26.9302 64.879 25.058C64.6081 24.889 64.4713 24.9614 64.4686 25.2806C64.4525 26.7854 64.7985 30.4735 64.1038 31.6618C64.0609 31.7342 63.9885 31.7878 63.9026 31.8093C62.8002 32.0668 61.6683 32.0346 60.5122 31.7154ZM68.8702 22.55C71.2414 22.4883 73.1029 20.0072 73.0224 17.0084C72.9446 14.0096 70.9571 11.6277 68.5859 11.6921C66.2148 11.7538 64.3533 14.2349 64.4337 17.2337C64.5115 20.2325 66.4991 22.6144 68.8702 22.55Z" fill="#62A7E0"/>
<path d="M83.9822 8.85474C87.0078 7.12467 91.1412 7.19977 94.0354 9.14443C98.6865 12.272 99.3839 19.7422 95.5751 23.8085C91.5865 28.068 84.4596 27.4082 81.155 22.7088C78.1428 18.4252 79.2104 11.5826 83.9822 8.85474ZM89.0625 22.5908C91.6401 22.4459 93.5929 19.8575 93.4212 16.8104C93.2495 13.7633 91.0232 11.4083 88.4455 11.5531C85.8678 11.698 83.9151 14.2864 84.0868 17.3335C84.2585 20.3806 86.4848 22.7356 89.0625 22.5908Z" fill="#62A7E0"/>
<path d="M137.459 8.24299C137.473 8.18398 137.521 8.14106 137.58 8.13301C138.768 7.99085 139.921 8.00963 141.045 8.19203C141.249 8.22421 141.41 8.38247 141.445 8.58632C141.568 9.27567 141.63 9.99453 141.63 10.7375C141.633 15.3216 141.635 19.9029 141.635 24.4843C141.635 24.9993 141.461 25.4526 141.11 25.8442C141.053 25.9086 140.973 25.9542 140.884 25.9756C139.809 26.2251 138.757 26.1741 137.733 25.8227C137.44 25.7235 137.296 25.517 137.293 25.2085C137.274 20.1148 137.269 15.0238 137.277 9.93283C137.277 9.36151 137.338 8.79822 137.459 8.24299Z" fill="#62A7E0"/>
<path d="M18.7998 58.5149C16.5466 60.2879 14.028 61.1569 11.1043 60.9316C5.23541 60.481 1.48556 56.5353 0.41801 50.9213C-0.72733 44.8915 1.12882 39.1568 6.39684 35.9004C12.2147 32.3089 19.2316 34.7471 22.5255 40.5274C22.7749 40.97 22.8259 41.3992 22.6757 41.8149C22.6489 41.89 22.5899 41.9571 22.5094 42.0027C21.3748 42.6491 20.2804 43.081 19.2209 43.3036C18.671 43.4189 18.2875 43.2204 18.0648 42.7054C17.2843 40.8976 16.1094 39.6852 14.5376 39.0709C11.9707 38.0677 8.86187 38.8751 7.26859 41.198C4.60507 45.0873 4.32611 51.27 7.96599 54.7033C11.7132 58.2386 17.8154 56.2778 18.6522 51.101C18.6844 50.9132 18.5557 50.7362 18.3679 50.7067C18.3545 50.7067 18.3438 50.704 18.3304 50.7013C16.7478 50.6128 14.1809 50.9428 12.7566 50.3392C12.6788 50.3071 12.6198 50.24 12.5983 50.1568C12.3006 49.0598 12.2764 48.0673 12.5313 47.1849C12.668 46.7155 12.9792 46.4794 13.4701 46.4794H21.8442C23.137 46.4794 23.1451 46.4901 23.1451 47.7803V59.2901C23.1451 59.9258 22.8286 60.2905 22.1982 60.3791C21.3238 60.5051 20.4252 60.4864 19.5025 60.3254C19.119 60.2584 18.9232 60.0196 18.9205 59.6119L18.9097 58.5632C18.9097 58.4746 18.8722 58.4585 18.7998 58.5149Z" fill="#62A7E0"/>
<path d="M97.5009 60.1965C97.1764 60.0972 97.0074 59.8799 96.9913 59.542C96.6507 51.6346 96.9082 43.5823 96.9082 35.5703C96.9082 35.3289 97.0664 35.117 97.2971 35.0473C98.4746 34.6905 99.746 34.6717 101.117 34.9963C101.194 35.0151 101.251 35.0848 101.251 35.1626C101.312 42.9815 101.345 50.7977 101.35 58.6166C101.35 59.1316 101.237 59.6117 101.012 60.057C100.972 60.1348 100.902 60.1911 100.819 60.2152C99.6897 60.5317 98.5846 60.5264 97.5009 60.1965Z" fill="#62A7E0"/>
<path d="M81.8471 43.2928C83.8964 41.8148 86.2354 41.4688 88.8613 42.2547C92.5253 43.3491 94.5907 47.5764 94.5236 51.2351C94.4915 52.89 94.1776 54.435 93.5822 55.8701C91.6026 60.6365 86.1737 62.447 81.8766 59.3168C81.8337 59.2846 81.7693 59.2927 81.7372 59.3383C81.7318 59.3463 81.7264 59.3544 81.7237 59.3624C81.0532 61.0442 78.969 60.5238 77.6252 60.1832C77.2926 60.1 77.1263 59.8855 77.1263 59.5421C77.1263 52.2436 77.1129 45.0282 77.0834 37.896C77.0834 37.0323 77.1746 36.2276 77.3623 35.4793C77.4213 35.2459 77.6198 35.085 77.8451 35.085L81.1873 35.0984C81.3509 35.0984 81.485 35.2352 81.485 35.4015C81.485 35.4015 81.485 35.4015 81.485 35.4042L81.477 43.0997C81.477 43.4081 81.6004 43.4725 81.8471 43.2928ZM85.6614 56.7177C88.0647 56.7391 90.0362 54.3331 90.063 51.345C90.0898 48.357 88.1612 45.9188 85.7579 45.8973C83.3546 45.8758 81.3831 48.2819 81.3563 51.2699C81.3294 54.258 83.258 56.6962 85.6614 56.7177Z" fill="#62A7E0"/>
<path d="M106.669 39.044C107.648 39.044 108.442 38.2502 108.442 37.271C108.442 36.2918 107.648 35.498 106.669 35.498C105.69 35.498 104.896 36.2918 104.896 37.271C104.896 38.2502 105.69 39.044 106.669 39.044Z" fill="#62A7E0"/>
<path d="M37.9755 59.4908C37.9192 59.3862 37.7904 59.3459 37.6885 59.3996C37.6885 59.3996 37.6858 59.3996 37.6831 59.3996C35.3629 60.6898 32.8228 61.2343 30.28 60.3464C25.5913 58.7102 25.0227 52.7555 29.3063 50.2825C29.8723 49.9579 30.9345 49.6065 32.4956 49.2283C34.2095 48.8126 35.9289 48.4075 37.659 48.0106C37.9031 47.9542 38.0828 47.7477 38.1042 47.4982C38.2088 46.1678 37.3371 45.5241 36.1167 45.288C34.3302 44.942 32.8845 45.5804 31.7794 47.1978C31.0766 48.2251 29.0408 47.7665 27.9115 47.5841C27.3751 47.4982 27.1658 47.1898 27.2839 46.6614C28.4775 41.2699 35.5105 41.1063 39.5634 42.5226C42.0016 43.3729 42.6534 45.339 42.6454 47.7504C42.6319 50.7894 42.7312 53.8284 42.7017 56.8648C42.691 57.9994 42.876 59.1126 43.2569 60.2069C43.2864 60.2928 43.2408 60.3893 43.1523 60.4188C43.1362 60.4242 43.1201 60.4269 43.104 60.4269C41.8755 60.4483 40.6229 60.4269 39.3461 60.3625C38.6675 60.3303 38.2679 60.0594 37.9755 59.4881V59.4908ZM31.8464 56.4222C32.1495 56.728 32.517 56.9024 32.9462 56.948C36.3634 57.2993 38.7802 55.698 38.1713 51.9267C38.1579 51.8516 38.0908 51.798 38.0157 51.8087C36.291 52.0233 34.6038 52.3907 32.9515 52.9111C31.1732 53.4717 30.2612 54.8209 31.8464 56.4222Z" fill="#62A7E0"/>
<path d="M117.009 43.9573C119.316 41.9214 122.658 41.0416 125.386 42.6618C128.044 44.2363 128.001 46.7013 128.095 49.9227C128.192 53.1951 128.168 56.4514 128.025 59.6916C128.012 60.0296 127.838 60.2361 127.508 60.3086C126.55 60.5205 125.587 60.5527 124.616 60.4105C124.077 60.33 123.804 60.0189 123.798 59.4744C123.758 56.3629 123.72 53.23 123.68 50.0783C123.651 47.8708 122.977 46.0361 120.472 46.1917C117.854 46.3499 116.934 48.7479 116.867 51.0627C116.787 53.8496 116.749 56.6365 116.757 59.4261C116.757 60.0081 116.47 60.3247 115.891 60.3783C114.914 60.4668 112.506 60.8906 112.447 59.292C112.259 54.1554 112.259 49.0215 112.447 43.8876C112.479 43.0024 112.634 42.297 113.648 42.3613C114.445 42.4123 115.258 42.3882 116.13 42.3882C116.325 42.3882 116.505 42.5518 116.564 42.7878L116.856 43.9251C116.867 43.9707 116.918 43.9975 116.969 43.9814C116.985 43.9761 116.999 43.968 117.012 43.9573H117.009Z" fill="#62A7E0"/>
<path d="M51.2663 43.5902C51.6981 43.4507 52.1809 43.2308 52.7147 42.9304C55.861 41.1735 58.7016 41.5436 61.2417 44.0381C61.4188 44.2125 61.7031 44.2179 61.8882 44.0516C64.3371 41.8413 67.0596 41.2915 70.0557 42.4046C73.5105 43.6841 73.3657 46.7419 73.3711 49.8695C73.3791 52.9434 73.3952 56.079 73.4247 59.2763C73.4274 59.7966 73.1833 60.1346 72.6871 60.2929C71.7376 60.596 70.6968 60.5959 69.5649 60.2955C69.3208 60.2338 69.1491 60.0139 69.1465 59.7618C69.1062 56.3526 69.0633 52.9434 69.0231 49.5368C69.0016 47.4983 68.4947 46.0445 66.2549 46.0123C63.3071 45.9721 62.2127 48.9441 62.2395 51.4413C62.2851 55.9583 62.2637 58.662 62.1725 59.5552C62.0384 60.8642 59.6967 60.4833 58.7848 60.3331C58.2456 60.2446 57.9613 59.9254 57.9371 59.3782C57.8003 56.5484 57.7574 53.6327 57.8111 50.6366C57.8459 48.7241 57.6555 46.2457 55.2629 46.0472C52.8783 45.8541 51.5667 47.7183 51.21 49.8346C50.6976 52.8844 50.9766 55.8939 50.8559 59.169C50.8291 59.9495 50.6225 60.2526 49.8125 60.3519C48.7825 60.4833 47.7686 60.4833 46.7734 60.3519C46.6447 60.3358 46.5481 60.2285 46.5481 60.097V43.7967C46.5481 42.0962 49.1339 42.2356 50.2443 42.4046C50.6654 42.4717 50.8827 42.7775 50.8934 43.3247C50.8934 43.4829 51.0249 43.6063 51.1831 43.6036C51.2126 43.6036 51.2395 43.5982 51.2663 43.5902Z" fill="#62A7E0"/>
<path d="M143.13 43.6496C143.205 43.7221 143.323 43.7194 143.395 43.647C144.422 42.6143 145.785 42.1797 147.483 42.3434C147.732 42.3675 147.936 42.558 147.971 42.8074C148.081 43.5504 148.137 44.3739 148.14 45.2724C148.162 52.8311 148.116 57.7049 148.006 59.8909C147.738 65.1536 143.736 66.4223 139.154 66.3955C135.396 66.374 132.196 65.3172 131.301 61.2214C131.252 61.0041 131.389 60.7868 131.609 60.7385C131.622 60.7359 131.636 60.7332 131.649 60.7305C132.854 60.583 134.026 60.5803 135.168 60.7171C135.579 60.768 135.933 60.937 136.228 61.2267C137.875 62.8361 139.707 63.2143 141.727 62.3613C143.666 61.5459 143.647 59.7327 143.58 57.9409C143.572 57.7531 143.492 57.7102 143.333 57.8148C141.512 59.0165 139.492 59.5074 137.277 59.2874C129.79 58.5444 128.358 47.9494 133.591 43.6336C136.217 41.4689 140.568 41.1524 143.13 43.6496ZM143.634 49.6768C143.599 47.539 141.839 45.8303 139.699 45.8652L138.985 45.8759C136.848 45.9108 135.139 47.6704 135.174 49.8082L135.201 51.4712C135.236 53.609 136.995 55.3176 139.136 55.2828L139.849 55.272C141.987 55.2372 143.695 53.4776 143.661 51.3371L143.634 49.6741V49.6768Z" fill="#62A7E0"/>
<path d="M105.215 60.2605C104.896 60.1827 104.727 59.9815 104.708 59.6516C104.649 58.4633 104.628 57.2912 104.644 56.1405C104.7 51.8059 104.679 47.4767 104.695 43.1421C104.695 42.5976 104.939 42.3347 105.419 42.3535C106.455 42.391 107.426 42.3427 108.386 42.5493C108.767 42.6324 108.965 42.8658 108.979 43.2547C109.051 45.2316 109.107 47.2057 109.145 49.1826C109.199 52.0124 108.995 55.3787 109.021 58.4821C109.024 58.9998 108.979 59.4397 108.882 59.8018C108.804 60.0942 108.616 60.2632 108.319 60.3088C107.136 60.4858 106.1 60.4697 105.215 60.2605Z" fill="#62A7E0"/>
</svg>
