<svg width="180" height="33" viewBox="0 0 180 33" fill="none" xmlns="http://www.w3.org/2000/svg">
<path d="M133.63 28.2606V9.30519H136.705V10.6978C137.134 10.0015 137.951 9.5373 138.613 9.30519C139.275 9.07308 139.936 8.99572 140.637 8.99572C142.35 8.99572 144.141 9.57598 145.621 11.0847C146.984 12.4773 147.684 14.2181 147.684 16.2297C147.684 17.1582 147.49 18.0866 147.14 18.9377C146.789 19.8278 146.283 20.6015 145.66 21.2587C144.998 21.9554 144.22 22.497 143.402 22.8448C142.545 23.193 141.766 23.3864 140.754 23.3864C140.014 23.3864 139.275 23.2707 138.613 23.0382C137.951 22.8061 137.016 22.304 136.666 21.7237V28.3001H133.629V28.2606H133.63ZM140.521 11.6653C139.392 11.6653 138.418 12.0135 137.64 12.8259C136.822 13.6769 136.511 14.8762 136.511 16.1141C136.511 17.3903 136.823 18.6672 137.601 19.5179C138.419 20.3694 139.392 20.6785 140.56 20.6785C141.728 20.6785 142.702 20.2146 143.402 19.4792C144.22 18.6286 144.61 17.5063 144.61 16.2684C144.61 14.9145 144.22 13.7539 143.402 12.9029C142.701 12.1292 141.689 11.6653 140.521 11.6653ZM165.4 9.30519H168.631L172.836 19.0541L176.769 9.30519H180L171.941 28.2606H168.748L171.318 22.2645L165.4 9.30519ZM160.494 23.116V21.6843C160.144 22.2645 159.209 22.8061 158.547 22.9995C157.847 23.2316 157.145 23.3477 156.406 23.3477C155.393 23.3477 154.615 23.1543 153.758 22.8061C152.94 22.458 152.162 21.9168 151.5 21.22C150.877 20.5628 150.371 19.7891 150.02 18.899C149.67 18.0088 149.476 17.1195 149.476 16.191C149.476 14.1795 150.177 12.4386 151.539 11.046C153.019 9.5373 154.849 8.95703 156.523 8.95703C157.224 8.95703 157.885 9.07308 158.547 9.26651C159.209 9.49862 160.027 9.96283 160.455 10.6592V9.26651H163.531V23.0773H160.494L160.494 23.116ZM153.758 12.8642C152.94 13.7152 152.551 14.9145 152.551 16.2297C152.551 17.468 152.94 18.5891 153.758 19.4406C154.498 20.1756 155.433 20.6398 156.601 20.6398C157.769 20.6398 158.742 20.3299 159.56 19.4792C160.378 18.6286 160.65 17.3903 160.65 16.075C160.65 14.8758 160.338 13.6379 159.521 12.7868C158.703 11.9744 157.73 11.6263 156.64 11.6263C155.433 11.6653 154.459 12.1292 153.758 12.8642ZM116.537 11.2394V22.8061H112.333L109.451 13.2897H109.374L109.529 22.8061H106.648V11.2394H111.009L113.734 20.4081H113.773L113.617 11.2394H116.537ZM56.0337 22.9226L58.214 11.2394H63.4312L65.6115 22.9226H62.4579L60.8616 12.2839H60.8226L59.1874 22.9226H56.0337ZM80.7958 11.2394L81.0684 22.9226H78.1094L78.0315 12.4H77.9537L76.0069 22.9226H73.009L71.0623 12.4H70.9844L70.9066 22.9226H67.9476L68.2201 11.2394H73.048L74.4885 20.1759H74.5275L76.0069 11.2394H80.7958ZM99.2117 21.1431C100.03 21.1431 100.302 20.6015 100.341 20.2916C100.38 20.1759 100.38 19.9825 100.38 19.8278V11.2398H103.378V19.6344C103.378 19.8665 103.339 20.2916 103.339 20.4081C103.144 22.5744 101.392 23.3094 99.2113 23.3094C97.031 23.3094 95.3179 22.6127 95.1232 20.4081C95.1232 20.2916 95.0843 19.8665 95.0843 19.6344V11.2398H98.0822V19.9048C98.0822 20.0595 98.0822 20.2146 98.1212 20.3694C98.1605 20.6015 98.3941 21.1431 99.2117 21.1431ZM51.0501 19.5957C51.167 19.8661 51.128 20.2529 51.0891 20.4464C50.9723 20.8332 50.7387 21.22 49.9211 21.22C49.1813 21.22 48.753 20.7945 48.753 20.1759V19.0541H45.5994V19.9435C45.5994 22.5744 47.6629 23.3481 49.8821 23.3481C52.0235 23.3481 53.7755 22.6131 54.0481 20.6788C54.2038 19.673 54.087 19.0158 54.0481 18.7446C53.5419 16.3079 49.0645 15.5725 48.753 14.1802C48.7141 13.9481 48.7141 13.716 48.753 13.5613C48.8309 13.1744 49.1034 12.7876 49.8432 12.7876C50.544 12.7876 50.9333 13.2131 50.9333 13.8321V14.5671H53.8534V13.7547C53.8534 11.2015 51.5563 10.8147 49.8821 10.8147C47.7797 10.8147 46.0666 11.511 45.7551 13.4065C45.6772 13.9094 45.6772 14.3736 45.794 14.9926C46.2612 17.429 50.4661 18.087 51.0501 19.5957ZM89.3224 19.5957C89.4392 19.8661 89.4003 20.2146 89.3614 20.4464C89.2835 20.8332 89.011 21.22 88.2323 21.22C87.4925 21.22 87.0643 20.7945 87.0643 20.1759V19.0541H83.9495V19.9435C83.9495 22.5357 86.013 23.3094 88.1933 23.3094C90.2958 23.3094 92.0478 22.6127 92.3204 20.6785C92.4761 19.6727 92.3597 19.0154 92.3204 18.7829C91.8142 16.3462 87.4147 15.6499 87.1036 14.2959C87.0257 14.0638 87.0646 13.8317 87.1036 13.6769C87.1814 13.2901 87.454 12.9032 88.1548 12.9032C88.8556 12.9032 89.245 13.3288 89.245 13.9477V14.6827H92.165V13.8704C92.165 11.3559 89.8679 10.969 88.2327 10.969C86.1692 10.969 84.456 11.6267 84.1446 13.5222C84.0667 14.0251 84.0278 14.4893 84.1835 15.0696C84.6114 17.429 88.7384 18.087 89.3224 19.5957ZM123.779 21.0266C124.635 21.0266 124.908 20.485 124.986 20.1759C125.025 20.0595 125.025 19.8661 125.025 19.7496V18.0483H123.818V16.3458H127.984V19.4792C127.984 19.7113 127.984 19.8661 127.945 20.2529C127.75 22.3806 125.881 23.1543 123.779 23.1543C121.715 23.1543 119.846 22.3806 119.652 20.2529C119.613 19.8661 119.613 19.7113 119.613 19.4792V14.5663C119.613 14.3729 119.652 13.986 119.652 13.7926C119.924 11.5876 121.676 10.8913 123.779 10.8913C125.881 10.8913 127.712 11.5876 127.906 13.7926C127.945 14.1408 127.945 14.5663 127.945 14.5663V14.9531H124.986V14.2955C124.986 14.2955 124.986 14.0247 124.947 13.8313C124.908 13.5605 124.675 12.9802 123.779 12.9802C122.923 12.9802 122.689 13.5605 122.611 13.8313C122.572 13.986 122.572 14.1795 122.572 14.3729V19.711C122.572 19.8657 122.572 20.0208 122.611 20.1365C122.611 20.5237 122.923 21.0266 123.779 21.0266Z" fill="white"/>
<path d="M32.5563 11.6255C32.167 8.60814 31.0768 5.86154 29.1691 3.84994C27.1445 1.95439 24.3802 0.871224 21.3433 0.484378C18.4232 0.0975319 16.4376 0.213586 16.4376 0.213586C16.4376 0.213586 14.4519 0.136217 11.5319 0.484378C8.49502 0.871224 5.73069 1.95439 3.70612 3.84994C1.79834 5.86154 0.708187 8.60814 0.318845 11.6255C-0.0704962 14.5269 0.00737215 16.4998 0.00737215 16.4998C0.00737215 16.4998 -0.0704962 18.4727 0.279911 21.3741C0.669253 24.3911 1.75941 27.1381 3.66718 29.1497C5.69176 31.0452 8.45609 32.128 11.4929 32.5148C14.413 32.9017 16.3987 32.786 16.3987 32.786C16.3987 32.786 18.3843 32.863 21.3044 32.5148C24.3412 32.128 27.1055 31.0452 29.1301 29.1497C31.0379 27.1384 32.1281 24.3911 32.5174 21.3741C32.9067 18.4727 32.7899 16.4998 32.7899 16.4998C32.7899 16.4998 32.9457 14.5269 32.5563 11.6255Z" fill="#1E4BC6"/>
<path d="M6.04224 11.7422H9.00123C9.46844 11.7422 9.85778 11.8196 10.2471 11.9743C10.6365 12.129 10.9479 12.3611 11.2205 12.6319C11.493 12.9027 11.7266 13.2122 11.8824 13.599C12.0381 13.9859 12.116 14.3727 12.116 14.7983C12.116 15.2238 12.0381 15.6106 11.8824 15.9975C11.7266 16.3843 11.493 16.6942 11.2205 16.9646C10.9479 17.235 10.5975 17.4679 10.2471 17.6219C9.89672 17.7766 9.46844 17.8547 9.00123 17.8547H7.67747V20.2915H6.08117V11.7422H6.04224ZM7.63854 13.2126V16.346H8.88443C9.11804 16.346 9.35164 16.3074 9.54631 16.23C9.74098 16.1526 9.89672 16.0366 10.0525 15.8818C10.2082 15.7271 10.2861 15.5723 10.3639 15.3789C10.4418 15.1855 10.4807 14.9921 10.4807 14.76C10.4807 14.5279 10.4418 14.3344 10.3639 14.141C10.2861 13.9476 10.1693 13.7929 10.0525 13.6381C9.89672 13.4834 9.74098 13.3673 9.54631 13.29C9.35164 13.2126 9.11804 13.1739 8.88443 13.1739H7.63854V13.2126ZM15.8147 20.2915C15.3864 20.2915 14.9971 20.2145 14.5688 20.0594C14.1795 19.9046 13.7901 19.6725 13.4787 19.4021C13.1672 19.0923 12.8946 18.7441 12.7 18.3186C12.5053 17.893 12.3885 17.3901 12.3885 16.8486C12.3885 16.307 12.4664 15.8041 12.661 15.3785C12.8557 14.953 13.1283 14.6048 13.4397 14.2954C13.7512 13.9859 14.1405 13.7925 14.5299 13.6377C14.9582 13.483 15.3475 13.4056 15.8147 13.4056C16.2819 13.4056 16.7102 13.483 17.0606 13.6377C17.4499 13.7925 17.7614 14.0246 18.034 14.2954V13.4056H19.6303V20.2911H18.034V19.324C17.8004 19.6338 17.4499 19.8656 17.0606 20.059C16.6713 20.2145 16.2819 20.2915 15.8147 20.2915ZM16.0873 18.8605C16.3987 18.8605 16.6713 18.8219 16.9049 18.7058C17.1385 18.5897 17.3721 18.4737 17.5667 18.2803C17.7614 18.0868 17.8782 17.8934 17.995 17.6613C18.1118 17.4284 18.1508 17.158 18.1508 16.8876C18.1508 16.6164 18.1118 16.3457 17.995 16.1139C17.8782 15.8818 17.7614 15.6497 17.5667 15.495C17.3721 15.3016 17.1774 15.1855 16.9049 15.0694C16.6323 14.9147 16.3598 14.876 16.0873 14.876C15.8147 14.876 15.5422 14.9147 15.2696 15.0308C14.9971 15.1468 14.8024 15.2629 14.6078 15.4563C14.4131 15.6497 14.2573 15.8431 14.1795 16.0752C14.0627 16.3074 14.0237 16.5781 14.0237 16.8489C14.0237 17.1197 14.0627 17.3901 14.1795 17.6222C14.2963 17.8551 14.452 18.0868 14.6078 18.2803C14.8024 18.4737 15.036 18.5894 15.2696 18.7058C15.5032 18.7828 15.7758 18.8605 16.0873 18.8605ZM21.8495 13.4443L23.7962 18.1251L25.5872 13.4443H27.2614L23.1733 23.4249H21.538L22.9786 19.9824L20.1753 13.4443H21.8495Z" fill="white"/>
</svg>
