<svg width="77" height="50" viewBox="0 0 77 50" fill="none" xmlns="http://www.w3.org/2000/svg">
<g clip-path="url(#clip0_3_3874)">
<path d="M28.2334 35.5605L32.1445 13.5605H38.2556L34.4667 35.5605H28.2334Z" fill="#959FC4"/>
<path d="M28.2334 35.5605L33.2445 13.5605H38.2556L34.4667 35.5605H28.2334Z" fill="white"/>
<path d="M56.5889 13.8049C55.3667 13.316 53.4111 12.8271 50.9667 12.8271C44.8556 12.8271 40.4556 15.8827 40.4556 20.2827C40.4556 23.5827 43.5111 25.2938 45.9556 26.3938C48.4 27.4938 49.1334 28.2271 49.1334 29.2049C49.1334 30.6716 47.1778 31.4049 45.4667 31.4049C43.0223 31.4049 41.6778 31.0383 39.6 30.1827L38.7445 29.816L37.8889 34.8272C39.3556 35.4383 42.0445 36.0494 44.8556 36.0494C51.3334 36.0494 55.6111 32.9938 55.6111 28.3494C55.6111 25.7827 54.0223 23.8271 50.3556 22.2383C48.1556 21.1383 46.8111 20.5271 46.8111 19.4271C46.8111 18.4494 47.9111 17.4716 50.3556 17.4716C52.4334 17.4716 53.9 17.8383 55 18.3271L55.6111 18.5716L56.5889 13.8049Z" fill="#959FC4"/>
<path d="M56.5889 13.8049C55.3667 13.316 53.4111 12.8271 50.9667 12.8271C44.8556 12.8271 41.5556 15.8827 41.5556 20.2827C41.5556 23.5827 43.5111 25.2938 45.9556 26.3938C48.4 27.4938 49.1334 28.2271 49.1334 29.2049C49.1334 30.6716 47.1778 31.4049 45.4667 31.4049C43.0223 31.4049 41.6778 31.0383 39.6 30.1827L38.7445 29.816L37.8889 34.8272C39.3556 35.4383 42.0445 36.0494 44.8556 36.0494C51.3334 36.0494 55.6111 32.9938 55.6111 28.3494C55.6111 25.7827 54.0223 23.8271 50.3556 22.2383C48.1556 21.1383 46.8111 20.5271 46.8111 19.4271C46.8111 18.4494 47.9111 17.4716 50.3556 17.4716C52.4334 17.4716 53.9 17.8383 55 18.3271L55.6111 18.5716L56.5889 13.8049Z" fill="white"/>
<path d="M67.1001 13.5605C65.6334 13.5605 64.5334 13.6828 63.9223 15.1494L54.7556 35.5605H61.3556L62.5778 31.8939H70.4001L71.1334 35.5605H77.0001L71.8667 13.5605H67.1001ZM64.2889 28.2272C64.6556 27.1272 66.7334 21.7494 66.7334 21.7494C66.7334 21.7494 67.2223 20.405 67.5889 19.5494L67.9556 21.6272C67.9556 21.6272 69.1778 27.1272 69.4223 28.3494H64.2889V28.2272Z" fill="#959FC4"/>
<path d="M68.5667 13.5605C67.1001 13.5605 66.0001 13.6828 65.3889 15.1494L54.7556 35.5605H61.3556L62.5778 31.8939H70.4001L71.1334 35.5605H77.0001L71.8667 13.5605H68.5667ZM64.2889 28.2272C64.7778 27.005 66.7334 21.7494 66.7334 21.7494C66.7334 21.7494 67.2223 20.405 67.5889 19.5494L67.9556 21.6272C67.9556 21.6272 69.1778 27.1272 69.4223 28.3494H64.2889V28.2272Z" fill="white"/>
<path d="M16.9889 28.9614L16.3778 25.7836C15.2778 22.1169 11.7333 18.0836 7.8222 16.128L13.3222 35.6836H19.9222L29.8222 13.6836H23.2222L16.9889 28.9614Z" fill="#959FC4"/>
<path d="M16.9889 28.9614L16.3778 25.7836C15.2778 22.1169 11.7333 18.0836 7.8222 16.128L13.3222 35.6836H19.9222L29.8222 13.6836H24.4444L16.9889 28.9614Z" fill="white"/>
<path d="M0 13.5605L1.1 13.805C8.92222 15.6383 14.3 20.2828 16.3778 25.7828L14.1778 15.3939C13.8111 13.9272 12.7111 13.5605 11.3667 13.5605H0Z" fill="#FFBC00"/>
<path d="M0 13.5605C7.82222 15.3939 14.3 20.1605 16.3778 25.6605L14.3 16.9828C13.9333 15.5161 12.7111 14.6605 11.3667 14.6605L0 13.5605Z" fill="#F7981D"/>
<path d="M0 13.5605C7.82222 15.3939 14.3 20.1605 16.3778 25.6605L14.9111 20.8939C14.5444 19.4272 14.0556 17.9605 12.3444 17.3494L0 13.5605Z" fill="#ED7C00"/>
<path d="M23.1 28.2281L18.9445 24.0725L16.9889 28.717L16.5 25.6614C15.4 21.9948 11.8556 17.9614 7.94446 16.0059L13.4445 35.5614H20.0445L23.1 28.2281Z" fill="white"/>
<path d="M34.4666 35.5614L29.2111 30.1836L28.2333 35.5614H34.4666Z" fill="white"/>
<path d="M48.5223 27.9834C49.0111 28.4723 49.2556 28.839 49.1334 29.3278C49.1334 30.7945 47.1778 31.5278 45.4667 31.5278C43.0223 31.5278 41.6778 31.1612 39.6 30.3056L38.7445 29.939L37.8889 34.9501C39.3556 35.5612 42.0445 36.1723 44.8556 36.1723C48.7667 36.1723 51.9445 35.0723 53.7778 33.1167L48.5223 27.9834Z" fill="white"/>
<path d="M55.6111 35.5619H61.3555L62.5778 31.8952H70.4L71.1333 35.5619H77L74.9222 26.6397L67.5889 19.5508L67.9555 21.5063C67.9555 21.5063 69.1777 27.0063 69.4222 28.2286H64.2889C64.7777 27.0063 66.7333 21.7508 66.7333 21.7508C66.7333 21.7508 67.2222 20.4063 67.5889 19.5508" fill="white"/>
</g>
<defs>
<clipPath id="clip0_3_3874">
<rect width="77" height="50" fill="white"/>
</clipPath>
</defs>
</svg>
